
<svg width="850" height="460" viewBox="0 0 850 460" xmlns="http://www.w3.org/2000/svg">
    <style>
        .text { font-family: -apple-system, BlinkMacSystemFont, "Segoe UI", Helvetica, Arial, sans-serif, "Apple Color Emoji", "Segoe UI Emoji"; fill: #c9d1d9; }
        .text-muted { fill: #8b949e; }
        .text-accent { fill: #58a6ff; }
        .glass-panel { fill: rgba(22, 27, 34, 0.8); stroke: rgba(48, 54, 61, 0.6); stroke-width: 1; rx: 10; }
        .icon { fill: #8b949e; }

        /* Animations */
        @keyframes pulse {
            0% { opacity: 0.6; }
            50% { opacity: 1; }
            100% { opacity: 0.6; }
        }

        @media (prefers-reduced-motion: no-preference) {
            .animate-pulse { animation: pulse 2s infinite; }
        }


    </style>
    <rect width="100%" height="100%" fill="#0d1117" rx="15" />

        <g transform="translate(30, 30)">
            <!-- Avatar Circle (Placeholder/Initials if no image logic) -->
            <circle cx="40" cy="40" r="38" fill="rgba(22, 27, 34, 0.8)" stroke="#58a6ff" stroke-width="2" />
            <text x="40" y="50" text-anchor="middle" font-size="28" font-weight="bold" fill="#c9d1d9">U</text>

            <!-- Name & Title -->
            <text x="95" y="35" font-size="24" font-weight="bold" class="text">hamdisoudani</text>
            <text x="95" y="60" font-size="14" class="text-muted">@hamdisoudani</text>

            <!-- Bio/Tagline -->
            <text x="95" y="85" font-size="12" class="text-accent" style="opacity: 0.9;">Full Stack Developer &amp; AI Specialist</text>
        </g>

        <g transform="translate(480, 30)">
            <!-- Stars -->
            <g transform="translate(0, 0)">
                <rect width="100" height="80" class="glass-panel" />
                <g transform="translate(20, 20) scale(1.5)" class="text-accent" style="fill: #f78166;"><path d="M8 .25a.75.75 0 0 1 .673.418l1.882 3.815 4.21.612a.75.75 0 0 1 .416 1.279l-3.046 2.97.719 4.192a.75.75 0 0 1-1.088.791L8 12.347l-3.766 1.98a.75.75 0 0 1-1.088-.79l.72-4.194L.818 6.374a.75.75 0 0 1 .416-1.28l4.21-.611L7.327.668A.75.75 0 0 1 8 .25Z"></path></g>
                <text x="50" y="65" text-anchor="middle" font-size="18" font-weight="bold" class="text">4</text>
                <text x="50" y="80" text-anchor="middle" font-size="10" class="text-muted" dy="-2">Stars</text>
            </g>

            <!-- Forks -->
            <g transform="translate(115, 0)">
                <rect width="100" height="80" class="glass-panel" />
                <g transform="translate(20, 20) scale(1.5)" class="text-muted"><path d="M5 5.372v.878c0 .414.336.75.75.75h4.5a.75.75 0 0 0 .75-.75v-.878a2.25 2.25 0 1 1 1.5 0v.878a2.25 2.25 0 0 1-2.25 2.25h-1.5v2.128a2.251 2.251 0 1 1-1.5 0V8.5h-1.5A2.25 2.25 0 0 1 3.5 6.25v-.878a2.25 2.25 0 1 1 1.5 0ZM5 3.25a.75.75 0 1 0-1.5 0 .75.75 0 0 0 1.5 0Zm6.75.75a.75.75 0 1 0 0-1.5.75.75 0 0 0 0 1.5Zm-3 8.75a.75.75 0 1 0-1.5 0 .75.75 0 0 0 1.5 0Z"></path></g>
                <text x="50" y="65" text-anchor="middle" font-size="18" font-weight="bold" class="text">0</text>
                <text x="50" y="80" text-anchor="middle" font-size="10" class="text-muted" dy="-2">Forks</text>
            </g>

            <!-- Repos -->
            <g transform="translate(230, 0)">
                <rect width="100" height="80" class="glass-panel" />
                <g transform="translate(20, 20) scale(1.5)" class="text-accent"><path d="M2 2.5A2.5 2.5 0 0 1 4.5 0h8.75a.75.75 0 0 1 .75.75v12.5a.75.75 0 0 1-.75.75h-2.5a.75.75 0 0 1 0-1.5h1.75v-2h-8a1 1 0 0 0-.714 1.7.75.75 0 1 1-1.072 1.05A2.495 2.495 0 0 1 2 11.5Zm10.5-1h-8a1 1 0 0 0-1 1v6.708A2.486 2.486 0 0 1 4.5 9h8ZM5 12.25a.25.25 0 0 1 .25-.25h3.5a.25.25 0 0 1 .25.25v3.25a.25.25 0 0 1-.4.2l-1.45-1.087a.249.249 0 0 0-.3 0L5.4 15.7a.25.25 0 0 1-.4-.2Z"></path></g>
                <text x="50" y="65" text-anchor="middle" font-size="18" font-weight="bold" class="text">11</text>
                <text x="50" y="80" text-anchor="middle" font-size="10" class="text-muted" dy="-2">Repos</text>
            </g>
        </g>

        <g transform="translate(30, 150)">
            <text x="0" y="0" font-size="14" font-weight="bold" class="text-muted" style="text-transform: uppercase; letter-spacing: 1px;">Top Languages</text>
            <g transform="translate(0, 20)">

            <g transform="translate(0, 0)">
                <text x="0" y="12" font-size="12" class="text" width="80">TypeScript</text>
                <rect x="90" y="2" width="90" height="12" rx="4" fill="#58a6ff" opacity="0.8" />
                <text x="190" y="12" font-size="10" class="text-muted">45%</text>
            </g>

            <g transform="translate(0, 25)">
                <text x="0" y="12" font-size="12" class="text" width="80">JavaScript</text>
                <rect x="90" y="2" width="54" height="12" rx="4" fill="#3fb950" opacity="0.8" />
                <text x="154" y="12" font-size="10" class="text-muted">27%</text>
            </g>

            </g>
        </g>

        <g transform="translate(350, 140)">
            <rect width="470" height="180" class="glass-panel" fill="rgba(0,0,0,0.3)" />

            <!-- Terminal Header -->
            <rect width="470" height="24" rx="10" fill="rgba(255,255,255,0.05)" />
            <circle cx="15" cy="12" r="4" fill="#ff5f56" />
            <circle cx="30" cy="12" r="4" fill="#ffbd2e" />
            <circle cx="45" cy="12" r="4" fill="#27c93f" />
            <text x="235" y="16" text-anchor="middle" font-family="monospace" font-size="10" class="text-muted">dev@hamdisoudani:~/activity</text>

            <!-- Terminal Content -->
            <g transform="translate(0, 10)">

            <text x="15" y="30" font-family="monospace" font-size="11" class="text">
                <tspan fill="#8b949e">[Jan 23]</tspan>
                <tspan fill="#3fb950" font-weight="bold">Push</tspan>
                <tspan fill="#8b949e">@</tspan>
                <tspan fill="#c9d1d9">CopilotKit</tspan>
            </text>

            <text x="15" y="50" font-family="monospace" font-size="11" class="text">
                <tspan fill="#8b949e">[Jan 23]</tspan>
                <tspan fill="#3fb950" font-weight="bold">Push</tspan>
                <tspan fill="#8b949e">@</tspan>
                <tspan fill="#c9d1d9">CopilotKit</tspan>
            </text>

            <text x="15" y="70" font-family="monospace" font-size="11" class="text">
                <tspan fill="#8b949e">[Jan 23]</tspan>
                <tspan fill="#8b949e" font-weight="bold">Create</tspan>
                <tspan fill="#8b949e">@</tspan>
                <tspan fill="#c9d1d9">CopilotKit</tspan>
            </text>

            <text x="15" y="90" font-family="monospace" font-size="11" class="text">
                <tspan fill="#8b949e">[Jan 23]</tspan>
                <tspan fill="#8b949e" font-weight="bold">Fork</tspan>
                <tspan fill="#8b949e">@</tspan>
                <tspan fill="#c9d1d9">CopilotKit</tspan>
            </text>

                <g transform="translate(15, 110)">
                     <text font-family="monospace" font-size="11" class="text-accent animate-pulse">_</text>
                </g>
            </g>
        </g>

        <g transform="translate(30, 420)">
             <text font-family="monospace" font-size="10" class="text-muted">
                System Status: <tspan fill="#3fb950">ONLINE</tspan> |
                Last Updated: <tspan fill="#c9d1d9">2026-02-07 UTC</tspan>
            </text>
        </g>

</svg>